<svg width="31" height="21" viewBox="0 0 31 21" fill="none" xmlns="http://www.w3.org/2000/svg">
<g clip-path="url(#clip0)">
<path fill-rule="evenodd" clip-rule="evenodd" d="M5.6811 3.41357H1.81542C1.6832 3.41357 1.55642 3.47317 1.46293 3.57917C1.36944 3.68517 1.31692 3.82893 1.31692 3.97884C1.31692 4.12876 1.36944 4.27252 1.46293 4.37852C1.55642 4.48452 1.6832 4.54412 1.81542 4.54412H5.6811C5.81331 4.54412 5.94013 4.48452 6.03362 4.37852C6.12711 4.27252 6.17963 4.12876 6.17963 3.97884C6.17963 3.82893 6.12711 3.68517 6.03362 3.57917C5.94013 3.47317 5.81331 3.41357 5.6811 3.41357V3.41357ZM6.01179 11.2913H2.47799C2.34661 11.2913 2.22063 11.3505 2.12774 11.4558C2.03484 11.5611 1.98265 11.704 1.98265 11.853C1.98265 12.0019 2.03484 12.1448 2.12774 12.2501C2.22063 12.3554 2.34661 12.4146 2.47799 12.4146H6.01179C6.14316 12.4146 6.26914 12.3554 6.36204 12.2501C6.45494 12.1448 6.50713 12.0019 6.50713 11.853C6.50713 11.704 6.45494 11.5611 6.36204 11.4558C6.26914 11.3505 6.14316 11.2913 6.01179 11.2913V11.2913ZM4.69037 7.91411H0.496547C0.364333 7.91411 0.237547 7.9737 0.144057 8.07971C0.0505679 8.18571 -0.00195312 8.32947 -0.00195312 8.47938C-0.00195312 8.6293 0.0505679 8.77305 0.144057 8.87906C0.237547 8.98506 0.364333 9.04457 0.496547 9.04457H4.69292C4.75838 9.04438 4.82318 9.02966 4.8836 9.00108C4.94402 8.9725 4.99888 8.93063 5.04506 8.87801C5.09123 8.82539 5.12781 8.76298 5.15271 8.69433C5.17761 8.62568 5.19035 8.55213 5.19018 8.4779C5.19002 8.40367 5.17695 8.33024 5.15175 8.26173C5.12654 8.19322 5.08966 8.13102 5.04325 8.07866C4.99684 8.02631 4.9418 7.98479 4.88125 7.95656C4.82071 7.92832 4.75584 7.91392 4.69037 7.91411ZM4.69037 15.7918H4.28273C4.15135 15.7918 4.02537 15.8509 3.93247 15.9563C3.83958 16.0616 3.78739 16.2045 3.78739 16.3535C3.78739 16.5025 3.83958 16.6453 3.93247 16.7506C4.02537 16.856 4.15135 16.9151 4.28273 16.9151H4.68914C4.75419 16.9152 4.81862 16.9008 4.87875 16.8727C4.93888 16.8445 4.99353 16.8032 5.03959 16.7512C5.08565 16.6991 5.12219 16.6372 5.14716 16.5691C5.17213 16.5009 5.18505 16.428 5.18514 16.3542C5.18522 16.2804 5.17248 16.2073 5.14766 16.1392C5.12284 16.071 5.08641 16.009 5.04048 15.9568C4.99454 15.9046 4.93997 15.8632 4.87991 15.8349C4.81984 15.8065 4.75542 15.7919 4.69037 15.7918V15.7918ZM2.63132 15.7918H0.496547C0.36517 15.7918 0.239189 15.8509 0.146291 15.9563C0.0533935 16.0616 0.00120511 16.2045 0.00120511 16.3535C0.00120511 16.5025 0.0533935 16.6453 0.146291 16.7506C0.239189 16.856 0.36517 16.9151 0.496547 16.9151H2.63386C2.76524 16.9147 2.89111 16.8552 2.98377 16.7496C3.07643 16.644 3.12831 16.501 3.12797 16.352C3.12764 16.203 3.0751 16.0604 2.98196 15.9553C2.88883 15.8502 2.7627 15.7914 2.63132 15.7918V15.7918ZM25.8911 1.58193H21.6903V0.565884C21.6897 0.417358 21.6371 0.275197 21.5441 0.170575C21.4511 0.0659535 21.3254 0.00743352 21.1944 0.00781435H13.5116C13.3802 0.00781435 13.2542 0.0669888 13.1613 0.172322C13.0684 0.277656 13.0162 0.420501 13.0162 0.569465C13.0162 0.718429 13.0684 0.861317 13.1613 0.966651C13.2542 1.07198 13.3802 1.13116 13.5116 1.13116H20.699V13.4521C20.6966 13.5276 20.7077 13.6029 20.7315 13.6734C20.7554 13.744 20.7915 13.8083 20.8378 13.8627C20.884 13.917 20.9395 13.9602 21.0008 13.9898C21.0621 14.0193 21.1281 14.0346 21.1947 14.0346C21.2613 14.0346 21.3272 14.0193 21.3886 13.9898C21.4499 13.9602 21.5053 13.917 21.5516 13.8627C21.5979 13.8083 21.634 13.744 21.6578 13.6734C21.6817 13.6029 21.6927 13.5276 21.6903 13.4521V2.70523H25.8911C26.9812 2.70713 28.026 3.19953 28.7961 4.07422C29.5662 4.94891 29.9987 6.13437 29.9985 7.37032V16.8794H28.7364C28.6189 16.0431 28.2422 15.2818 27.6741 14.7322C27.106 14.1825 26.3836 13.8806 25.6368 13.8806C24.89 13.8806 24.1676 14.1825 23.5995 14.7322C23.0314 15.2818 22.6548 16.0431 22.5372 16.8794H21.6884V16.078C21.6908 16.0025 21.6798 15.9272 21.6559 15.8567C21.6321 15.7862 21.596 15.7218 21.5497 15.6674C21.5035 15.6131 21.448 15.5699 21.3867 15.5403C21.3254 15.5108 21.2594 15.4955 21.1928 15.4955C21.1262 15.4955 21.0602 15.5108 20.9989 15.5403C20.9376 15.5699 20.8821 15.6131 20.8359 15.6674C20.7896 15.7218 20.7535 15.7862 20.7297 15.8567C20.7058 15.9272 20.6947 16.0025 20.6971 16.078V16.8794H15.4368C15.3189 16.0436 14.9421 15.2828 14.3741 14.7337C13.806 14.1845 13.084 13.8829 12.3375 13.8829C11.5911 13.8829 10.869 14.1845 10.301 14.7337C9.733 15.2828 9.35619 16.0436 9.23823 16.8794H8.20711V1.13116H11.527C11.6584 1.13116 11.7843 1.07198 11.8772 0.966651C11.9701 0.861317 12.0223 0.718429 12.0223 0.569465C12.0223 0.420501 11.9701 0.277656 11.8772 0.172322C11.7843 0.0669888 11.6584 0.00781435 11.527 0.00781435H7.71176C7.58083 0.00743405 7.45512 0.0659769 7.36224 0.170619C7.26936 0.275261 7.21692 0.417423 7.21642 0.565884V17.4446C7.21658 17.5938 7.2687 17.737 7.36147 17.8428C7.45424 17.9487 7.58015 18.0087 7.71176 18.0098H9.23823C9.35619 18.8456 9.733 19.6064 10.301 20.1556C10.869 20.7047 11.5911 21.0064 12.3375 21.0064C13.084 21.0064 13.806 20.7047 14.3741 20.1556C14.9421 19.6064 15.3189 18.8456 15.4368 18.0098H22.5372C22.6548 18.8461 23.0314 19.6074 23.5995 20.157C24.1676 20.7067 24.89 21.0086 25.6368 21.0086C26.3836 21.0086 27.106 20.7067 27.6741 20.157C28.2422 19.6074 28.6189 18.8461 28.7364 18.0098H30.4919C30.6236 18.0087 30.7495 17.9487 30.8422 17.8428C30.935 17.737 30.9872 17.5938 30.9873 17.4446V7.37032C30.9867 5.8371 30.4498 4.36677 29.4945 3.28168C28.5392 2.1966 27.2433 1.58534 25.8911 1.58193V1.58193ZM12.3397 19.8845C11.9139 19.8859 11.4972 19.744 11.1425 19.4767C10.7878 19.2095 10.5111 18.829 10.3472 18.3833C10.1834 17.9376 10.1399 17.4468 10.2222 16.973C10.3045 16.4992 10.509 16.0639 10.8096 15.7219C11.1103 15.38 11.4937 15.1469 11.9113 15.0522C12.3289 14.9575 12.7619 15.0053 13.1554 15.1898C13.549 15.3742 13.8854 15.6869 14.1222 16.0883C14.3589 16.4897 14.4852 16.9617 14.4853 17.4446C14.4851 18.0904 14.2592 18.7098 13.857 19.1671C13.4549 19.6244 12.9093 19.8824 12.3397 19.8845V19.8845ZM25.6387 19.8845C25.0692 19.8824 24.5235 19.6244 24.1214 19.1671C23.7193 18.7098 23.4934 18.0904 23.4932 17.4446V17.4446C23.4945 16.9637 23.6213 16.4942 23.8578 16.095C24.0944 15.6959 24.4299 15.3852 24.822 15.2022C25.2142 15.0191 25.6454 14.972 26.0611 15.0667C26.4769 15.1614 26.8586 15.3936 27.158 15.7341C27.4574 16.0746 27.6612 16.5081 27.7434 16.9798C27.8257 17.4515 27.7829 17.9403 27.6203 18.3844C27.4577 18.8285 27.1827 19.208 26.83 19.475C26.4773 19.742 26.0628 19.8845 25.6387 19.8845V19.8845ZM25.8911 3.82862H23.1777C23.0461 3.82975 22.9202 3.88975 22.8274 3.99561C22.7346 4.10148 22.6825 4.24457 22.6823 4.3938V9.68138C22.6825 9.83062 22.7346 9.9738 22.8274 10.0797C22.9202 10.1855 23.0461 10.2455 23.1777 10.2467H28.5143C28.646 10.2455 28.772 10.1855 28.8648 10.0797C28.9577 9.97382 29.01 9.83068 29.0103 9.68138V7.37032C29.0105 6.4318 28.682 5.53165 28.0972 4.86755C27.5123 4.20344 26.7189 3.82975 25.8911 3.82862V3.82862ZM28.0158 9.11619H23.6731V4.95908H25.8911C26.4548 4.95984 26.995 5.21419 27.3934 5.66628C27.7918 6.11838 28.0156 6.73125 28.0158 7.37032V9.11619ZM12.3397 15.9922C12.0862 15.9913 11.8382 16.0757 11.627 16.2348C11.4159 16.3939 11.2511 16.6204 11.1536 16.8858C11.056 17.1511 11.0301 17.4433 11.0791 17.7254C11.1281 18.0074 11.2498 18.2666 11.4288 18.4701C11.6078 18.6737 11.8361 18.8125 12.0846 18.8688C12.3332 18.9252 12.591 18.8967 12.8253 18.7869C13.0596 18.6771 13.2599 18.491 13.4008 18.252C13.5417 18.0131 13.617 17.732 13.617 17.4446C13.6171 17.06 13.4827 16.6911 13.2433 16.4188C13.0038 16.1465 12.6789 15.9931 12.3397 15.9922V15.9922ZM12.3397 17.7738C12.2633 17.7728 12.1903 17.7377 12.1365 17.6761C12.0828 17.6145 12.0526 17.5312 12.0526 17.4446C12.0561 17.361 12.0878 17.2821 12.1412 17.2243C12.1946 17.1665 12.2656 17.1343 12.3394 17.1343C12.4132 17.1343 12.4842 17.1665 12.5376 17.2243C12.591 17.2821 12.6228 17.361 12.6262 17.4446C12.6263 17.5311 12.5962 17.6142 12.5426 17.6758C12.4889 17.7374 12.4161 17.7726 12.3397 17.7738ZM25.6387 15.9922C25.3852 15.9915 25.1373 16.076 24.9262 16.2351C24.7151 16.3943 24.5504 16.6209 24.453 16.8863C24.3555 17.1516 24.3297 17.4438 24.3788 17.7258C24.4279 18.0078 24.5496 18.2669 24.7286 18.4704C24.9077 18.6739 25.1359 18.8126 25.3845 18.8689C25.633 18.9253 25.8908 18.8967 26.125 18.7868C26.3593 18.677 26.5596 18.4909 26.7005 18.252C26.8413 18.013 26.9166 17.732 26.9166 17.4446C26.9166 17.06 26.782 16.6911 26.5425 16.4188C26.3029 16.1465 25.9779 15.9931 25.6387 15.9922V15.9922ZM25.6387 17.7738C25.5624 17.7726 25.4895 17.7374 25.4359 17.6758C25.3823 17.6142 25.3522 17.5311 25.3522 17.4446C25.3522 17.3584 25.3824 17.2759 25.4361 17.2149C25.4898 17.154 25.5627 17.1197 25.6387 17.1197C25.7147 17.1197 25.7876 17.154 25.8413 17.2149C25.895 17.2759 25.9252 17.3584 25.9252 17.4446C25.9252 17.5311 25.8951 17.6142 25.8415 17.6758C25.7879 17.7374 25.715 17.7726 25.6387 17.7738V17.7738ZM28.5112 11.785C28.3802 11.7846 28.2545 11.8432 28.1616 11.9478C28.0688 12.0524 28.0163 12.1947 28.0158 12.3431V13.767C28.0134 13.8425 28.0245 13.9177 28.0483 13.9882C28.0722 14.0587 28.1083 14.1231 28.1545 14.1775C28.2008 14.2318 28.2563 14.2751 28.3176 14.3046C28.3789 14.3342 28.4448 14.3494 28.5115 14.3494C28.5781 14.3494 28.644 14.3342 28.7054 14.3046C28.7667 14.2751 28.8221 14.2318 28.8684 14.1775C28.9146 14.1231 28.9508 14.0587 28.9746 13.9882C28.9985 13.9177 29.0095 13.8425 29.0072 13.767V12.3431C29.0065 12.1952 28.9543 12.0535 28.862 11.949C28.7697 11.8445 28.6448 11.7856 28.5143 11.785H28.5112Z" fill="#A3BBC8"/>
</g>
<defs>
<clipPath id="clip0">
<rect width="31" height="21" fill="white"/>
</clipPath>
</defs>
</svg>
