<svg width="27" height="24" viewBox="0 0 27 24" fill="none" xmlns="http://www.w3.org/2000/svg">
<g clip-path="url(#clip0)">
<path fill-rule="evenodd" clip-rule="evenodd" d="M25.3802 16.9215C25.3198 16.9208 25.2598 16.932 25.2039 16.9545C25.1479 16.977 25.097 17.0104 25.0541 17.0527C25.0111 17.095 24.977 17.1453 24.9538 17.2008C24.9305 17.2563 24.9185 17.3158 24.9185 17.3759V21.9033C24.9179 22.2168 24.7927 22.5172 24.5702 22.7388C24.3477 22.9604 24.0461 23.0852 23.7315 23.0857H2.11164C1.79699 23.0852 1.49543 22.9604 1.27294 22.7388C1.05045 22.5172 0.92521 22.2168 0.924629 21.9033V15.3777H15.9221C16.0446 15.3777 16.162 15.3293 16.2486 15.2431C16.3352 15.1568 16.3838 15.0399 16.3838 14.9179C16.3838 14.7959 16.3352 14.679 16.2486 14.5927C16.162 14.5065 16.0446 14.458 15.9221 14.458H0.924629V11.4635H6.34881C6.40875 11.4636 6.46809 11.452 6.5235 11.4292C6.5789 11.4064 6.62924 11.373 6.67162 11.3308C6.71401 11.2886 6.74763 11.2384 6.77051 11.1832C6.79338 11.128 6.80507 11.0689 6.80492 11.0091C6.80536 10.888 6.75764 10.7716 6.67216 10.6854C6.58668 10.5993 6.47042 10.5503 6.34881 10.5493H0.924629V8.97266C0.924045 8.65837 1.04874 8.35667 1.27133 8.13392C1.49391 7.91116 1.79613 7.78555 2.11164 7.78468H15.9221C16.0438 7.78468 16.1606 7.73649 16.2466 7.65076C16.3327 7.56503 16.3811 7.44882 16.3811 7.32759C16.3811 7.20635 16.3327 7.09007 16.2466 7.00434C16.1606 6.91862 16.0438 6.87046 15.9221 6.87046H2.11164C1.55285 6.87176 1.01742 7.09379 0.622813 7.4879C0.228208 7.88201 0.00668892 8.41603 0.00683601 8.97266V21.9033C0.00785293 22.4591 0.229912 22.9918 0.624423 23.3848C1.01893 23.7778 1.55371 23.999 2.11164 24H23.7315C24.2894 23.999 24.8242 23.7778 25.2187 23.3848C25.6132 22.9918 25.8353 22.4591 25.8363 21.9033V17.3759C25.8364 17.3162 25.8247 17.257 25.8019 17.2018C25.779 17.1467 25.7454 17.0965 25.703 17.0543C25.6606 17.0121 25.6103 16.9786 25.5548 16.9559C25.4994 16.9331 25.4401 16.9214 25.3802 16.9215V16.9215ZM15.9221 10.5493H8.10738C7.98577 10.5503 7.86951 10.5993 7.78403 10.6854C7.69855 10.7716 7.65083 10.888 7.65127 11.0091C7.65112 11.0689 7.66281 11.128 7.68568 11.1832C7.70855 11.2384 7.74211 11.2886 7.7845 11.3308C7.82688 11.373 7.87722 11.4064 7.93262 11.4292C7.98803 11.452 8.04744 11.4636 8.10738 11.4635H15.9221C16.0438 11.4639 16.1606 11.4164 16.2471 11.3312C16.3336 11.2461 16.3828 11.1303 16.3838 11.0091C16.3831 10.8874 16.3342 10.7708 16.2478 10.6848C16.1614 10.5987 16.0444 10.55 15.9221 10.5493V10.5493ZM10.8442 16.8777H3.00192C2.88022 16.8777 2.76349 16.9259 2.67743 17.0117C2.59138 17.0974 2.54306 17.2136 2.54306 17.3348C2.54306 17.4561 2.59138 17.5723 2.67743 17.6581C2.76349 17.7438 2.88022 17.792 3.00192 17.792H10.8442C10.9045 17.792 10.9641 17.7802 11.0198 17.7572C11.0755 17.7342 11.1261 17.7005 11.1687 17.6581C11.2113 17.6156 11.2451 17.5652 11.2682 17.5098C11.2912 17.4543 11.3031 17.3949 11.3031 17.3348C11.3031 17.2748 11.2912 17.2154 11.2682 17.1599C11.2451 17.1045 11.2113 17.0541 11.1687 17.0117C11.1261 16.9692 11.0755 16.9355 11.0198 16.9126C10.9641 16.8896 10.9045 16.8777 10.8442 16.8777V16.8777ZM7.50288 19.062H3.00192C2.88022 19.062 2.76349 19.1102 2.67743 19.196C2.59138 19.2817 2.54306 19.3979 2.54306 19.5191C2.54306 19.6404 2.59138 19.7566 2.67743 19.8424C2.76349 19.9281 2.88022 19.9763 3.00192 19.9763H7.50288C7.62458 19.9763 7.74131 19.9281 7.82737 19.8424C7.91342 19.7566 7.96174 19.6404 7.96174 19.5191C7.96174 19.3979 7.91342 19.2817 7.82737 19.196C7.74131 19.1102 7.62458 19.062 7.50288 19.062V19.062ZM26.5342 11.6113C26.595 11.6119 26.6553 11.6004 26.7115 11.5775C26.7678 11.5546 26.819 11.5207 26.8619 11.4779C26.9049 11.4351 26.9389 11.3842 26.9619 11.3281C26.9849 11.272 26.9964 11.212 26.9958 11.1515V8.54016C26.9961 8.16051 26.8659 7.79223 26.627 7.49646C26.3881 7.20068 26.0547 6.99524 25.6824 6.91426V3.61863C25.7014 3.13268 25.6217 2.64789 25.4481 2.19335C25.2745 1.7388 25.0106 1.32383 24.6722 0.973324C24.3338 0.622816 23.9278 0.343997 23.4786 0.153527C23.0294 -0.0369443 22.5462 -0.135132 22.058 -0.135132C21.5698 -0.135132 21.0866 -0.0369443 20.6374 0.153527C20.1882 0.343997 19.7823 0.622816 19.4438 0.973324C19.1054 1.32383 18.8415 1.7388 18.6679 2.19335C18.4944 2.64789 18.4147 3.13268 18.4337 3.61863V6.91426C18.061 6.99554 17.7273 7.20089 17.4875 7.49646C17.2477 7.79203 17.1163 8.16015 17.1147 8.54016V14.4252C17.1154 14.8664 17.2917 15.2893 17.6048 15.6012C17.918 15.9132 18.3425 16.0887 18.7854 16.0894H25.3251C25.5446 16.0895 25.7619 16.0465 25.9646 15.9629C26.1673 15.8793 26.3515 15.7567 26.5067 15.6021C26.6618 15.4476 26.7849 15.2641 26.8688 15.0621C26.9528 14.8602 26.9959 14.6438 26.9958 14.4252V12.6788C26.9958 12.5576 26.9475 12.4414 26.8615 12.3556C26.7754 12.2699 26.6587 12.2217 26.537 12.2217C26.4153 12.2217 26.2985 12.2699 26.2125 12.3556C26.1264 12.4414 26.078 12.5576 26.078 12.6788V14.4252C26.0767 14.6237 25.997 14.8137 25.8561 14.9541C25.7152 15.0944 25.5244 15.1739 25.3251 15.1752H18.7854C18.5861 15.1739 18.3953 15.0944 18.2544 14.9541C18.1135 14.8137 18.0338 14.6237 18.0325 14.4252V8.54016C18.0338 8.34164 18.1135 8.1516 18.2544 8.01122C18.3953 7.87085 18.5861 7.79145 18.7854 7.79016H25.3251C25.5244 7.79145 25.7152 7.87085 25.8561 8.01122C25.997 8.1516 26.0767 8.34164 26.078 8.54016V11.1515C26.0773 11.2116 26.0886 11.2713 26.1112 11.327C26.1338 11.3828 26.1673 11.4336 26.2097 11.4763C26.2522 11.5191 26.3027 11.5531 26.3584 11.5762C26.4141 11.5994 26.4739 11.6113 26.5342 11.6113V11.6113ZM24.7591 6.8759H19.3514V3.61863C19.3514 2.90429 19.6363 2.21918 20.1433 1.71407C20.6504 1.20895 21.3382 0.925176 22.0553 0.925176C22.7724 0.925176 23.4601 1.20895 23.9672 1.71407C24.4743 2.21918 24.7591 2.90429 24.7591 3.61863V6.8759ZM22.0553 9.2409C21.6447 9.24115 21.248 9.38949 20.9387 9.6585C20.6294 9.92752 20.4283 10.299 20.3727 10.7043C20.3171 11.1095 20.4106 11.5211 20.6361 11.863C20.8615 12.2048 21.2037 12.4538 21.5992 12.5639V13.6807C21.5984 13.7408 21.6096 13.8005 21.6322 13.8562C21.6548 13.912 21.6884 13.9627 21.7308 14.0055C21.7732 14.0483 21.8237 14.0823 21.8794 14.1054C21.9351 14.1286 21.9949 14.1405 22.0553 14.1405C22.1159 14.1406 22.176 14.1287 22.232 14.1056C22.2881 14.0825 22.339 14.0487 22.3818 14.006C22.4247 13.9633 22.4588 13.9125 22.4819 13.8567C22.5051 13.8009 22.517 13.7411 22.5169 13.6807V12.5639C22.9112 12.4522 23.2518 12.2023 23.4759 11.8602C23.6999 11.5182 23.7923 11.107 23.7361 10.7025C23.6799 10.2979 23.4789 9.92722 23.17 9.65864C22.8612 9.39006 22.4653 9.24174 22.0553 9.2409ZM22.0553 11.7154C21.9004 11.7159 21.7488 11.6707 21.6198 11.5854C21.4907 11.5001 21.3899 11.3786 21.3301 11.2363C21.2703 11.0939 21.2542 10.9372 21.2839 10.7857C21.3136 10.6343 21.3877 10.4951 21.4969 10.3856C21.606 10.2761 21.7452 10.2013 21.897 10.1707C22.0488 10.14 22.2063 10.1549 22.3496 10.2134C22.493 10.272 22.6156 10.3715 22.7021 10.4995C22.7886 10.6275 22.8351 10.7782 22.8357 10.9325C22.836 11.1393 22.754 11.3377 22.6077 11.4844C22.4615 11.6311 22.2628 11.7142 22.0553 11.7154V11.7154Z" fill="#A3BBC8"/>
</g>
<defs>
<clipPath id="clip0">
<rect width="27" height="24" fill="white"/>
</clipPath>
</defs>
</svg>
