<svg width="27" height="27" viewBox="0 0 27 27" fill="none" xmlns="http://www.w3.org/2000/svg">
<g clip-path="url(#clip0)">
<path fill-rule="evenodd" clip-rule="evenodd" d="M24.9556 6.36394C24.9199 6.3065 24.8732 6.25667 24.8182 6.21726C24.7632 6.17786 24.701 6.14967 24.6351 6.13431C24.5692 6.11895 24.5009 6.11672 24.4341 6.12774C24.3674 6.13876 24.3035 6.16282 24.246 6.19855C24.1886 6.23427 24.1387 6.28095 24.0993 6.33594C24.0599 6.39092 24.0317 6.45313 24.0163 6.51901C24.001 6.58489 23.9988 6.65315 24.0098 6.7199C24.0208 6.78664 24.0449 6.85056 24.0806 6.90801C25.6169 9.37628 26.2421 12.3038 25.8481 15.1843C25.4541 18.0647 24.0657 20.7168 21.923 22.682C19.7803 24.6471 17.018 25.8017 14.1141 25.946C11.2101 26.0902 8.34705 25.215 6.02013 23.4719C5.91051 23.3951 5.77535 23.364 5.64321 23.385C5.51106 23.4061 5.39229 23.4778 5.312 23.5848C5.23171 23.6919 5.19619 23.8259 5.21295 23.9586C5.22971 24.0914 5.29744 24.2125 5.40181 24.2962C7.92101 26.1834 11.0207 27.1309 14.1646 26.9748C17.3085 26.8188 20.2991 25.5689 22.6189 23.4414C24.9388 21.3139 26.442 18.4427 26.8687 15.3242C27.2954 12.2058 26.6187 9.03628 24.9556 6.36394V6.36394ZM12.2979 18.4213H8.14825L10.7551 15.8109C11.4094 15.161 11.9282 14.3878 12.2815 13.5359C12.6347 12.6841 12.8153 11.7705 12.8129 10.8484C12.8129 10.4266 12.7298 10.009 12.5684 9.61936C12.407 9.2297 12.1704 8.87562 11.8721 8.57739C11.5738 8.27916 11.2198 8.04264 10.8301 7.88124C10.4404 7.71984 10.0227 7.63672 9.60089 7.63672C9.17909 7.63672 8.76142 7.71984 8.37172 7.88124C7.98203 8.04264 7.62794 8.27916 7.32968 8.57739C7.03142 8.87562 6.79484 9.2297 6.63342 9.61936C6.472 10.009 6.38893 10.4266 6.38893 10.8484C6.3933 10.9821 6.44949 11.1089 6.54565 11.202C6.6418 11.295 6.77038 11.3471 6.90419 11.3471C7.03801 11.3471 7.16658 11.295 7.26273 11.202C7.35889 11.1089 7.41509 10.9821 7.41946 10.8484C7.41946 10.5619 7.47588 10.2783 7.58551 10.0137C7.69513 9.74905 7.85582 9.50855 8.05839 9.306C8.26095 9.10346 8.50143 8.9428 8.76609 8.83318C9.03076 8.72357 9.31442 8.66715 9.60089 8.66715C9.88736 8.66715 10.171 8.72357 10.4357 8.83318C10.7004 8.9428 10.9408 9.10346 11.1434 9.306C11.346 9.50855 11.5067 9.74905 11.6163 10.0137C11.7259 10.2783 11.7823 10.5619 11.7823 10.8484C11.7843 11.6356 11.6301 12.4154 11.3286 13.1427C11.0272 13.87 10.5846 14.5304 10.0263 15.0855L6.53952 18.5697C6.46756 18.6428 6.41876 18.7355 6.39921 18.8362C6.37966 18.9369 6.39022 19.0411 6.42959 19.1358C6.46887 19.2294 6.53511 19.3091 6.61987 19.3649C6.70464 19.4207 6.80409 19.4499 6.90556 19.449H12.299C12.4353 19.4489 12.5659 19.3946 12.6622 19.2981C12.7585 19.2017 12.8125 19.0709 12.8123 18.9346C12.8122 18.7983 12.7579 18.6677 12.6614 18.5715C12.5649 18.4752 12.4342 18.4212 12.2979 18.4213V18.4213ZM20.5636 14.8822H19.1346V14.0468C19.1302 13.9131 19.074 13.7863 18.9778 13.6932C18.8817 13.6002 18.7531 13.5482 18.6193 13.5482C18.4855 13.5482 18.3569 13.6002 18.2608 13.6932C18.1646 13.7863 18.1084 13.9131 18.104 14.0468V14.8822H15.1988L18.104 10.0185V12.3322C18.1018 12.4013 18.1134 12.4701 18.1383 12.5345C18.1632 12.599 18.2008 12.6579 18.2489 12.7076C18.2969 12.7572 18.3545 12.7967 18.4181 12.8237C18.4818 12.8507 18.5502 12.8645 18.6193 12.8645C18.6884 12.8645 18.7568 12.8507 18.8205 12.8237C18.8841 12.7967 18.9417 12.7572 18.9898 12.7076C19.0378 12.6579 19.0754 12.599 19.1003 12.5345C19.1252 12.4701 19.1368 12.4013 19.1346 12.3322V8.14455C19.1331 8.05611 19.1094 7.96943 19.0656 7.89258C19.0218 7.81573 18.9593 7.75117 18.884 7.70488C18.7661 7.63538 18.6255 7.61547 18.493 7.64947C18.3605 7.68346 18.2469 7.76858 18.1771 7.88621L13.8489 15.135C13.8022 15.2128 13.7771 15.3017 13.776 15.3924C13.775 15.4832 13.798 15.5726 13.8428 15.6515C13.8881 15.7308 13.9532 15.7969 14.0319 15.8432C14.1106 15.8895 14.2 15.9144 14.2913 15.9154H18.1046V18.938C18.109 19.0717 18.1652 19.1985 18.2613 19.2915C18.3575 19.3846 18.486 19.4366 18.6198 19.4366C18.7537 19.4366 18.8822 19.3846 18.9784 19.2915C19.0746 19.1985 19.1307 19.0717 19.1351 18.938V15.9154H20.5641C20.7011 15.9153 20.8325 15.8608 20.9294 15.7638C21.0262 15.6669 21.0806 15.5355 21.0805 15.3985C21.0804 15.2615 21.0259 15.1301 20.929 15.0333C20.832 14.9364 20.7006 14.8821 20.5636 14.8822V14.8822ZM23.493 2.44556C23.4933 2.37679 23.4798 2.30867 23.4533 2.24521C23.4268 2.18175 23.3878 2.12424 23.3388 2.07606C23.2897 2.02787 23.2315 1.98998 23.1676 1.96463C23.1036 1.93928 23.0353 1.92697 22.9665 1.92843C22.8977 1.9299 22.83 1.94513 22.7672 1.97318C22.7044 2.00123 22.6479 2.04155 22.6009 2.09179C22.5539 2.14202 22.5175 2.20117 22.4937 2.26571C22.47 2.33024 22.4593 2.39887 22.4625 2.46757L22.4856 3.4293C19.8568 1.07859 16.4122 -0.149911 12.889 0.00674383C9.36584 0.163398 6.04393 1.69275 3.63419 4.2675C1.22446 6.84224 -0.0816357 10.2579 -0.00458745 13.7833C0.0724608 17.3088 1.52653 20.6641 4.04645 23.1311C4.1423 23.2263 4.27193 23.2796 4.407 23.2795C4.47552 23.2801 4.54344 23.2667 4.60665 23.2403C4.66986 23.2138 4.72703 23.1749 4.77469 23.1256C4.87048 23.0277 4.92352 22.8957 4.92218 22.7587C4.92084 22.6217 4.86523 22.4908 4.76755 22.3947C3.00012 20.6613 1.78894 18.441 1.28839 16.0167C0.787831 13.5925 1.02058 11.074 1.95697 8.78253C2.89335 6.49103 4.49096 4.53026 6.54613 3.15012C8.6013 1.76999 11.0209 1.03301 13.4966 1.03318C16.5593 1.03747 19.5139 2.16585 21.7997 4.20417L20.7867 4.22617C20.7192 4.22697 20.6526 4.24104 20.5905 4.2676C20.5285 4.29415 20.4723 4.33266 20.4251 4.38094C20.378 4.42921 20.3408 4.48631 20.3157 4.54895C20.2906 4.6116 20.2781 4.67857 20.2789 4.74605C20.2797 4.81353 20.2938 4.88017 20.3203 4.94221C20.3469 5.00424 20.3854 5.06045 20.4337 5.1076C20.4819 5.15476 20.539 5.19193 20.6017 5.21702C20.6643 5.24211 20.7313 5.25464 20.7988 5.25385H20.8115L23.0429 5.20438C23.1107 5.20302 23.1775 5.18827 23.2395 5.16097C23.3015 5.13367 23.3575 5.09436 23.4043 5.04532C23.451 4.99627 23.4876 4.93847 23.5119 4.87522C23.5362 4.81197 23.5477 4.74451 23.5458 4.67678L23.493 2.44556Z" fill="#A3BBC8"/>
</g>
<defs>
<clipPath id="clip0">
<rect width="27" height="27" fill="white"/>
</clipPath>
</defs>
</svg>
