<svg width="20" height="20" viewBox="0 0 20 20" fill="none" xmlns="http://www.w3.org/2000/svg">
<path fill-rule="evenodd" clip-rule="evenodd" d="M0.739935 1.63003H2.8608L5.8817 13.6701C5.92586 13.841 6.01975 13.9912 6.14898 14.0978C6.27821 14.2044 6.43569 14.2613 6.5972 14.26H15.8826C16.0256 14.2599 16.1655 14.2145 16.2858 14.1294C16.406 14.0443 16.5014 13.9231 16.5608 13.7801L19.9399 5.21999C19.9883 5.09431 20.0079 4.95752 19.9971 4.82156C19.9864 4.68559 19.9455 4.55455 19.8781 4.43997C19.8113 4.32691 19.72 4.23392 19.6124 4.16934C19.5048 4.10475 19.3843 4.07059 19.2617 4.06997H8.99993C8.80223 4.06997 8.61261 4.15642 8.47281 4.3102C8.33301 4.46398 8.25447 4.67256 8.25447 4.89004C8.25447 5.10752 8.33301 5.31609 8.47281 5.46987C8.61261 5.62365 8.80223 5.70998 8.99993 5.70998H18.1272L15.3899 12.63H7.15173L4.13083 0.6C4.08891 0.426897 3.99589 0.274038 3.86638 0.165429C3.73687 0.0568202 3.57823 -0.00135607 3.41538 2.39988e-05H0.739935C0.543433 2.41446e-05 0.354978 0.0858293 0.216031 0.238671C0.0770839 0.391514 -0.000976562 0.598814 -0.000976562 0.814965C-0.000976562 1.03112 0.0770839 1.23842 0.216031 1.39126C0.354978 1.5441 0.543433 1.63003 0.739935 1.63003V1.63003ZM5.89446 20C6.22729 20.001 6.55291 19.8934 6.83008 19.6907C7.10725 19.488 7.32348 19.1994 7.45147 18.8615C7.57946 18.5235 7.61345 18.1513 7.54907 17.7921C7.48469 17.4329 7.32483 17.1029 7.08981 16.8437C6.85479 16.5844 6.55513 16.4078 6.22877 16.336C5.90241 16.2642 5.564 16.3005 5.25642 16.4403C4.94885 16.5802 4.68592 16.8174 4.50092 17.1217C4.31592 17.4261 4.21716 17.7839 4.21716 18.15C4.21716 18.6398 4.39374 19.1096 4.70816 19.4564C5.02258 19.8032 5.44921 19.9987 5.89446 20V20ZM16.3763 20H16.499C16.9532 19.9823 17.3829 19.7692 17.6956 19.4064C18.0083 19.0436 18.1791 18.5603 18.171 18.0604C18.163 17.5606 17.9768 17.0843 17.6526 16.7339C17.3284 16.3836 16.8921 16.1873 16.4376 16.1873C15.9831 16.1873 15.5469 16.3836 15.2227 16.7339C14.8985 17.0843 14.7123 17.5606 14.7043 18.0604C14.6962 18.5603 14.8669 19.0436 15.1796 19.4064C15.4923 19.7692 15.9221 19.9823 16.3763 20V20Z" fill="white"/>
</svg>
