<svg width="20" height="20" viewBox="0 0 20 20" fill="none" xmlns="http://www.w3.org/2000/svg">
<path fill-rule="evenodd" clip-rule="evenodd" d="M19.991 6.46661C19.9163 4.74468 19.3166 3.11943 18.3101 1.91108C17.3115 0.690377 15.9579 0.00319234 14.5455 0C12.4446 0 10.9564 1.97777 10.1573 3.04443C10.1129 3.11045 10.0656 3.17355 10.0156 3.23337L9.94011 3.13327C9.21284 2.11105 7.68916 0 5.45098 0C4.03934 0.00402241 2.68649 0.691126 1.68827 1.91108C0.681781 3.11943 0.0820869 4.74468 0.00736368 6.46661C-0.0655938 8.18759 0.341799 9.88793 1.16281 11.2889C2.43563 13.2455 3.88853 15.0164 5.49281 16.5667C7.04281 18.1334 9.08375 20 10.0065 20C10.9447 20 12.9783 18.1334 14.5201 16.5667C16.1193 15.0158 17.5671 13.2449 18.8347 11.2889C19.6502 9.88461 20.0572 8.18679 19.991 6.46661V6.46661ZM17.831 10.4778C16.6486 12.3002 15.2968 13.9482 13.8028 15.3889C11.6155 17.6111 10.3201 18.4889 10.0101 18.5223C9.69917 18.4889 8.401 17.6 6.20282 15.3666C4.70679 13.935 3.35302 12.2943 2.16917 10.4778C1.49502 9.3369 1.15723 7.95029 1.21098 6.54446C1.26481 5.2007 1.73162 3.93129 2.51802 2.98991C3.30442 2.04853 4.35249 1.50446 5.45281 1.46661C7.14645 1.46661 8.37644 3.17771 9.03735 4.09994C9.13654 4.31914 9.27439 4.50876 9.4409 4.65481C9.60741 4.80087 9.79843 4.89971 10.0001 4.94439C10.2164 4.89231 10.4213 4.7853 10.6015 4.63026C10.7818 4.47522 10.9333 4.27568 11.0465 4.04446C11.7683 3.07779 12.9756 1.46661 14.5474 1.46661C15.6477 1.50446 16.6958 2.04853 17.4822 2.98991C18.2686 3.93129 18.7354 5.2007 18.7892 6.54446C18.8482 7.95107 18.5099 9.33978 17.831 10.4778Z" fill="#A3BBC8"/>
</svg>
