<svg width="18" height="16" viewBox="0 0 18 16" xmlns="http://www.w3.org/2000/svg">
<g clip-path="url(#clip0)">
<path fill-rule="evenodd" clip-rule="evenodd" d="M17.9918 5.17329C17.9246 3.79574 17.3848 2.49554 16.479 1.52886C15.5803 0.552302 14.362 0.00255387 13.0909 0C11.2 0 9.86066 1.58222 9.14147 2.43554C9.10151 2.48836 9.05894 2.53884 9.01394 2.5867L8.946 2.50662C8.29146 1.68884 6.92015 0 4.90578 0C3.63531 0.00321793 2.41774 0.552901 1.51935 1.52886C0.613505 2.49554 0.0737806 3.79574 0.00652967 5.17329C-0.0591321 6.55007 0.307521 7.91034 1.04643 9.03112C2.19197 10.5964 3.49958 12.0131 4.94343 13.2534C6.33843 14.5067 8.17528 16 9.00575 16C9.85013 16 11.6804 14.5067 13.068 13.2534C14.5073 12.0126 15.8103 10.5959 16.9511 9.03112C17.6851 7.90769 18.0514 6.54943 17.9918 5.17329ZM16.0478 8.38224C14.9836 9.84016 13.767 11.1586 12.4224 12.3111C10.4539 14.0889 9.28799 14.7911 9.00899 14.8178C8.72916 14.7911 7.5608 14.08 5.58244 12.2933C4.23601 11.148 3.01762 9.83544 1.95216 8.38224C1.34542 7.46952 1.04141 6.36023 1.08978 5.23557C1.13823 4.16056 1.55836 3.14503 2.26612 2.39193C2.97388 1.63882 3.91714 1.20357 4.90743 1.17329C6.43171 1.17329 7.5387 2.54217 8.13352 3.27995C8.22279 3.45531 8.34685 3.60701 8.49671 3.72385C8.64657 3.8407 8.81849 3.91977 8.99999 3.95551C9.19466 3.91385 9.37907 3.82824 9.54125 3.70421C9.70352 3.58018 9.83987 3.42054 9.94175 3.23557C10.5914 2.46223 11.6779 1.17329 13.0926 1.17329C14.0828 1.20357 15.0261 1.63882 15.7339 2.39193C16.4416 3.14503 16.8618 4.16056 16.9102 5.23557C16.9633 6.36086 16.6588 7.47182 16.0478 8.38224Z"/>
</g>
<defs>
<clipPath id="clip0">
<rect width="18" height="16" fill="white"/>
</clipPath>
</defs>
</svg>
