<svg width="20" height="20" viewBox="0 0 20 20"  xmlns="http://www.w3.org/2000/svg">
<path fill-rule="evenodd" clip-rule="evenodd"  d="M19.45 16.8L14.862 12.2099C14.1782 13.2729 13.2742 14.1766 12.211 14.8599L16.799 19.4499C17.1504 19.8015 17.6271 19.999 18.1241 19.9991C18.6212 19.9992 19.098 19.8018 19.4495 19.4504C19.8011 19.099 19.9986 18.6224 19.9987 18.1253C19.9988 17.6283 19.8014 17.1516 19.45 16.8V16.8ZM15 7.49996C15 6.0166 14.5601 4.56658 13.736 3.33321C12.9119 2.09984 11.7406 1.13854 10.3701 0.570881C8.99967 0.00322348 7.49167 -0.145266 6.03681 0.144123C4.58195 0.433512 3.24561 1.14772 2.19672 2.19661C1.14783 3.24551 0.433496 4.58197 0.144107 6.03682C-0.145282 7.49168 0.00326872 8.99963 0.570926 10.3701C1.13858 11.7405 2.09989 12.9118 3.33326 13.7359C4.56662 14.56 6.01664 15 7.5 15C9.48913 15 11.3968 14.2098 12.8033 12.8033C14.2098 11.3968 15 9.48908 15 7.49996ZM7.5 13.12C6.38727 13.12 5.29953 12.7899 4.37439 12.1716C3.44926 11.5533 2.72827 10.6746 2.30268 9.64644C1.87708 8.61832 1.76602 7.48699 1.98346 6.39571C2.20091 5.30443 2.73712 4.30218 3.5243 3.5157C4.31147 2.72923 5.31423 2.19385 6.4057 1.97737C7.49718 1.7609 8.62832 1.87301 9.65607 2.29952C10.6838 2.72603 11.562 3.44781 12.1794 4.37349C12.7969 5.29918 13.126 6.38723 13.125 7.49996C13.1229 8.99069 12.5294 10.4197 11.4749 11.4733C10.4203 12.527 8.99074 13.1192 7.5 13.12V13.12ZM3.125 7.49996H4.375C4.37632 6.6711 4.70582 5.87643 5.29145 5.28988C5.87707 4.70332 6.67115 4.3726 7.5 4.36995V3.11995C6.33971 3.12286 5.22783 3.58541 4.40784 4.40633C3.58785 5.22725 3.12659 6.33966 3.125 7.49996V7.49996Z"/>
</svg>
