<?xml version="1.0" encoding="utf-8"?><svg viewBox="0 0 22 32" xmlns="http://www.w3.org/2000/svg" xmlns:xlink="http://www.w3.org/1999/xlink"><style>:root>svg{display:none}:root>svg:target{display:block}</style><svg viewBox="0 0 22 9" id="arrow-btn" xmlns="http://www.w3.org/2000/svg"><defs><style>.acls-1{fill:#fff;fill-rule:evenodd}</style></defs><path class="acls-1" d="M.3 5.472h16.948l-.1 2.857a.292.292 0 000 .41l.172.172a.28.28 0 00.2.086.285.285 0 00.2-.084l4.193-4.211A.292.292 0 0022 4.5a.283.283 0 00-.084-.2L17.723.087a.289.289 0 00-.407 0l-.172.173a.287.287 0 00-.084.2.278.278 0 00.084.2l.113 2.865H.292A.3.3 0 000 3.82v1.37a.292.292 0 00.3.282z"/></svg><svg viewBox="0 0 22 9" id="arrow-btn-products" xmlns="http://www.w3.org/2000/svg"><defs><style>.bcls-1{fill:#436372;fill-rule:evenodd}</style></defs><path class="bcls-1" d="M.3 5.47h16.948l-.1 2.86a.279.279 0 00-.084.2.3.3 0 00.084.21l.172.17a.276.276 0 00.408 0L21.92 4.7a.283.283 0 00.084-.2.307.307 0 00-.084-.21L17.728.08a.3.3 0 00-.408 0l-.172.17a.3.3 0 00-.084.21.3.3 0 00.084.2l.113 2.86H.292a.3.3 0 00-.292.3v1.37a.288.288 0 00.3.28z"/></svg><svg viewBox="0 0 18.94 16.969" id="cart-user" xmlns="http://www.w3.org/2000/svg"><path d="M5.53 16.978a2.074 2.074 0 110-4.147 2.056 2.056 0 011.46.6 2.03 2.03 0 01.61 1.466 2.071 2.071 0 01-2.07 2.081zm0-2.963a.889.889 0 10.34 1.71.9.9 0 00.55-.824.92.92 0 00-.26-.629.9.9 0 00-.63-.257zm8.39 2.963a2.045 2.045 0 01-1.46-.607 2.068 2.068 0 011.46-3.54 1.953 1.953 0 011.47.6 2.085 2.085 0 01-.67 3.383 2.093 2.093 0 01-.8.164zm0-2.963a.978.978 0 00-.82.548.887.887 0 001.16 1.161.891.891 0 00.29-1.452.9.9 0 00-.63-.257zm-11.27.164a.562.562 0 01-.25-.056.59.59 0 01-.29-.787 3.686 3.686 0 013.05-2.151L4.11 5.794a.591.591 0 111.16-.228l1.09 5.578h9.43l1.8-6.771H4.29A4.346 4.346 0 01.01.68.587.587 0 01.5.007a.6.6 0 01.68.5 3.159 3.159 0 003.11 2.682h14.07a.582.582 0 01.47.232.594.594 0 01.11.513l-2.13 7.956a.59.59 0 01-.57.44H5.88a.03.03 0 00-.02 0 2.66 2.66 0 00-2.68 1.51.586.586 0 01-.53.338z"/></svg><svg viewBox="0 0 20 20" id="cartpr" xmlns="http://www.w3.org/2000/svg"><path fill-rule="evenodd" clip-rule="evenodd" d="M.74 1.63h2.12l3.022 12.04c.044.171.138.321.267.428.13.106.287.163.448.162h9.286a.698.698 0 00.403-.13.804.804 0 00.275-.35l3.379-8.56a.91.91 0 00-.062-.78.772.772 0 00-.266-.27.687.687 0 00-.35-.1H9a.713.713 0 00-.527.24.863.863 0 00-.219.58c0 .218.079.426.219.58.14.154.33.24.527.24h9.127l-2.737 6.92H7.152L4.13.6a.816.816 0 00-.265-.435.692.692 0 00-.45-.165H.74a.708.708 0 00-.524.239.858.858 0 00-.217.576c0 .216.078.423.217.576a.709.709 0 00.524.239zM5.894 20c.333.001.659-.107.936-.31.277-.202.493-.49.621-.829.128-.338.162-.71.098-1.069a1.914 1.914 0 00-.46-.948 1.64 1.64 0 00-.86-.508 1.54 1.54 0 00-.973.104c-.307.14-.57.377-.755.682a1.984 1.984 0 00-.284 1.028c0 .49.177.96.491 1.306.315.347.741.543 1.186.544zm10.482 0h.123c.454-.018.884-.23 1.197-.594.312-.362.483-.846.475-1.346a2.003 2.003 0 00-.518-1.326 1.656 1.656 0 00-1.215-.547c-.455 0-.891.197-1.215.547-.325.35-.51.827-.519 1.326-.008.5.163.984.476 1.346.312.363.742.576 1.196.594z"/></svg><svg viewBox="0 0 18 16" id="heart-user" xmlns="http://www.w3.org/2000/svg"><g clip-path="url(#eclip0)"><path fill-rule="evenodd" clip-rule="evenodd" d="M17.992 5.173c-.067-1.377-.607-2.677-1.513-3.644C15.58.552 14.362.003 13.091 0 11.2 0 9.86 1.582 9.14 2.436a1.85 1.85 0 01-.127.15l-.068-.08C8.291 1.69 6.92 0 4.906 0c-1.27.003-2.488.553-3.387 1.529C.614 2.496.074 3.796.007 5.173a6.467 6.467 0 001.04 3.858 25.114 25.114 0 003.896 4.222C6.338 14.507 8.175 16 9.006 16c.844 0 2.674-1.493 4.062-2.747a25.066 25.066 0 003.883-4.222 6.552 6.552 0 001.04-3.858zm-1.944 3.21a23.133 23.133 0 01-3.626 3.928c-1.968 1.778-3.134 2.48-3.413 2.507-.28-.027-1.448-.738-3.427-2.525a22.927 22.927 0 01-3.63-3.91 5.288 5.288 0 01-.862-3.147 4.448 4.448 0 011.176-2.844c.708-.753 1.651-1.188 2.641-1.219 1.525 0 2.632 1.37 3.227 2.107.089.175.213.327.363.444.15.117.321.196.503.232a1.36 1.36 0 00.541-.252c.163-.124.299-.283.4-.468.65-.774 1.737-2.063 3.152-2.063.99.03 1.933.466 2.64 1.219a4.448 4.448 0 011.177 2.844 5.22 5.22 0 01-.862 3.146z"/></g><defs><clipPath id="eclip0"><path fill="#fff" d="M0 0h18v16H0z"/></clipPath></defs></svg><svg viewBox="0 0 20 20" id="heartpr" xmlns="http://www.w3.org/2000/svg"><defs><style>.fcls-1{fill:#243f4d;fill-rule:evenodd}</style></defs><path id="ficon" class="fcls-1" d="M19.991 6.467c-.075-1.722-.674-3.348-1.68-4.556C17.31.691 15.957.003 14.545 0c-2.101 0-3.59 1.978-4.389 3.044-.044.066-.091.13-.141.19l-.076-.1C9.213 2.11 7.69 0 5.451 0 4.039.004 2.686.691 1.688 1.911.682 3.12.082 4.745.008 6.467c-.074 1.72.334 3.42 1.155 4.822a30.318 30.318 0 004.33 5.278C7.043 18.133 9.083 20 10.007 20c.938 0 2.971-1.867 4.513-3.433a30.28 30.28 0 004.315-5.278c.815-1.404 1.222-3.102 1.156-4.822zm-2.16 4.01a27.93 27.93 0 01-4.028 4.912c-2.188 2.222-3.483 3.1-3.793 3.133-.31-.033-1.609-.922-3.807-3.155a27.653 27.653 0 01-4.034-4.89c-.674-1.14-1.012-2.527-.958-3.933.054-1.343.52-2.613 1.307-3.554.786-.941 1.834-1.486 2.935-1.523 1.693 0 2.923 1.71 3.584 2.633.1.22.237.409.404.555.166.146.357.245.56.29.215-.053.42-.16.6-.315a1.83 1.83 0 00.445-.586c.722-.966 1.93-2.577 3.501-2.577 1.1.037 2.149.582 2.935 1.523.787.941 1.253 2.21 1.307 3.554.06 1.407-.28 2.796-.958 3.934z"/></svg><svg viewBox="0 0 1 32" id="line" xmlns="http://www.w3.org/2000/svg"><defs><style>.gcls-1{fill:#fff;opacity:.4}</style></defs><path class="gcls-1" d="M0 0h1v32H0z"/></svg><svg viewBox="0 0 1 32" id="line-menu" xmlns="http://www.w3.org/2000/svg"><defs><style>.hcls-1{fill:#fff;opacity:.4}</style></defs><path class="hcls-1" d="M0 0h1v32H0z"/></svg><svg viewBox="0 0 20.03 20.031" id="menu-user" xmlns="http://www.w3.org/2000/svg"><path d="M2.15 4.287a2.146 2.146 0 112.14-2.145 2.145 2.145 0 01-2.14 2.145zm0 7.869a2.146 2.146 0 112.14-2.147 2.146 2.146 0 01-2.14 2.147zm0 7.868a2.146 2.146 0 112.14-2.146 2.145 2.145 0 01-2.14 2.146zm7.86-15.737a2.146 2.146 0 112.15-2.145 2.143 2.143 0 01-2.15 2.145zm0 7.869a2.146 2.146 0 112.15-2.147 2.144 2.144 0 01-2.15 2.147zm0 7.868a2.146 2.146 0 112.15-2.146 2.143 2.143 0 01-2.15 2.146zm7.87-15.737a2.146 2.146 0 112.15-2.145 2.143 2.143 0 01-2.15 2.145zm0 7.869a2.146 2.146 0 112.15-2.147 2.144 2.144 0 01-2.15 2.147zm0 7.868a2.146 2.146 0 112.15-2.146 2.143 2.143 0 01-2.15 2.146z"/></svg><svg viewBox="0 0 20 20" id="search-user" xmlns="http://www.w3.org/2000/svg"><path fill-rule="evenodd" clip-rule="evenodd" d="M19.45 16.8l-4.588-4.59a8.826 8.826 0 01-2.651 2.65l4.588 4.59a1.874 1.874 0 102.651-2.65zM15 7.5a7.5 7.5 0 10-15 0 7.5 7.5 0 0015 0zm-7.5 5.62a5.625 5.625 0 110-11.25 5.625 5.625 0 010 11.25zM3.125 7.5h1.25A3.135 3.135 0 017.5 4.37V3.12A4.386 4.386 0 003.125 7.5z"/></svg><svg viewBox="0 0 20 20" id="searchpr" xmlns="http://www.w3.org/2000/svg"><path fill-rule="evenodd" clip-rule="evenodd" d="M19.45 16.8l-4.588-4.59a8.826 8.826 0 01-2.651 2.65l4.588 4.59a1.874 1.874 0 102.651-2.65zM15 7.5a7.5 7.5 0 10-15 0 7.5 7.5 0 0015 0zm-7.5 5.62a5.625 5.625 0 110-11.25 5.625 5.625 0 010 11.25zM3.125 7.5h1.25A3.135 3.135 0 017.5 4.37V3.12A4.386 4.386 0 003.125 7.5z"/></svg><svg viewBox="0 0 22 25" id="video-icon" xmlns="http://www.w3.org/2000/svg"><path fill="#fff" data-name="Form 24" class="lcls-1" d="M20.684 14.74L4.64 24.54a3.228 3.228 0 01-3.062.14 2.685 2.685 0 01-1.579-2.39V2.7A2.685 2.685 0 011.578.31 3.258 3.258 0 014.64.46l16.044 9.79A2.666 2.666 0 0122 12.5a2.638 2.638 0 01-1.316 2.24z"/></svg></svg>